<?xml version="1.0" encoding="utf-8"?>
<!-- Generator: Adobe Illustrator 17.0.0, SVG Export Plug-In . SVG Version: 6.00 Build 0)  -->
<!DOCTYPE svg PUBLIC "-//W3C//DTD SVG 1.1//EN" "http://www.w3.org/Graphics/SVG/1.1/DTD/svg11.dtd">
<svg version="1.1" id="Layer_1" xmlns="http://www.w3.org/2000/svg" xmlns:xlink="http://www.w3.org/1999/xlink" x="0px" y="0px"
	 width="138.512px" height="45px" viewBox="0 0 138.512 45" enable-background="new 0 0 138.512 45" xml:space="preserve">
<g>
	<g>
		<path fill="#FFFFFF" d="M55.064,32.866c1.72,0,2.599-1.085,2.599-3.235v-7.442c-0.71-0.112-1.141-0.187-1.253-0.224
			c-0.187-0.038-0.262-0.168-0.262-0.355v-0.785h4.675v0.785c0,0.187-0.112,0.318-0.299,0.355l-1.047,0.206v7.405
			c0,2.3-0.823,3.777-2.431,4.45c-0.524,0.225-1.103,0.337-1.739,0.337c-0.636,0-1.29-0.075-1.945-0.262
			c0.056-0.785,0.131-1.234,0.206-1.309s0.187-0.112,0.299-0.112c0.112,0,0.262,0.019,0.449,0.075
			c0.187,0.056,0.449,0.093,0.748,0.093V32.866z"/>
		<path fill="#FFFFFF" d="M67.229,24.938c0.561,0.224,1.047,0.561,1.44,0.972c0.393,0.412,0.692,0.935,0.898,1.533
			c0.206,0.598,0.318,1.272,0.318,2.02s-0.112,1.421-0.318,2.019c-0.206,0.598-0.505,1.122-0.898,1.533
			c-0.393,0.411-0.879,0.748-1.44,0.972c-0.561,0.224-1.178,0.336-1.87,0.336s-1.309-0.112-1.87-0.336
			c-0.561-0.224-1.047-0.561-1.44-0.972c-0.393-0.411-0.692-0.935-0.916-1.533c-0.224-0.598-0.299-1.271-0.299-2.019
			s0.075-1.421,0.299-2.02c0.224-0.598,0.524-1.122,0.916-1.533c0.393-0.412,0.879-0.748,1.44-0.972
			c0.561-0.224,1.178-0.337,1.87-0.337S66.668,24.714,67.229,24.938z M67.453,32.118c0.449-0.636,0.692-1.515,0.692-2.637
			c0-1.122-0.243-2.001-0.692-2.637c-0.449-0.636-1.159-0.935-2.094-0.935c-0.486,0-0.898,0.075-1.234,0.224
			c-0.337,0.15-0.636,0.411-0.86,0.71c-0.224,0.299-0.411,0.673-0.524,1.122c-0.112,0.449-0.187,0.972-0.187,1.533
			c0,0.561,0.075,1.047,0.187,1.496c0.112,0.449,0.299,0.823,0.524,1.122c0.224,0.299,0.524,0.524,0.86,0.673
			c0.337,0.15,0.748,0.262,1.234,0.262C66.294,33.053,67.004,32.754,67.453,32.118z"/>
		<path fill="#FFFFFF" d="M78.745,33.016c0.168,0.038,0.281,0.187,0.281,0.355v0.804H77.81h-0.131h-0.598
			c-0.15,0-0.281-0.037-0.393-0.075c-0.112-0.038-0.15-0.15-0.187-0.299l-0.187-0.898c-0.262,0.224-0.524,0.43-0.748,0.617
			c-0.224,0.187-0.486,0.337-0.748,0.449c-0.262,0.112-0.524,0.206-0.823,0.281c-0.299,0.075-0.636,0.093-1.01,0.093
			c-0.374,0-0.692-0.056-1.01-0.168c-0.318-0.112-0.617-0.243-0.842-0.449c-0.224-0.206-0.411-0.467-0.561-0.785
			c-0.15-0.318-0.206-0.692-0.206-1.122c0-0.374,0.093-0.748,0.299-1.085c0.206-0.336,0.561-0.673,1.01-0.935
			c0.449-0.262,1.047-0.505,1.795-0.673c0.748-0.168,1.645-0.243,2.73-0.243v-0.729c0-0.748-0.168-1.309-0.486-1.683
			c-0.318-0.374-0.785-0.58-1.402-0.58c-0.412,0-0.748,0.056-1.028,0.168c-0.281,0.112-0.505,0.206-0.711,0.336
			c-0.206,0.131-0.393,0.225-0.542,0.337c-0.15,0.112-0.28,0.15-0.43,0.15c-0.112,0-0.224-0.019-0.299-0.075
			c-0.075-0.056-0.15-0.15-0.187-0.224l-0.299-0.524c0.524-0.505,1.085-0.86,1.683-1.122c0.598-0.262,1.271-0.374,2.019-0.374
			c0.524,0,1.01,0.075,1.421,0.262c0.411,0.187,0.748,0.411,1.028,0.71c0.281,0.299,0.486,0.673,0.636,1.122
			c0.15,0.449,0.206,0.935,0.206,1.459v4.731c0.262,0.056,0.823,0.168,0.935,0.206V33.016z M76.164,29.949
			c-0.767,0-1.421,0.037-1.945,0.131c-0.524,0.094-0.972,0.243-1.309,0.393c-0.337,0.15-0.598,0.337-0.748,0.561
			c-0.15,0.225-0.224,0.449-0.224,0.711c0,0.262,0.056,0.449,0.131,0.636c0.075,0.187,0.187,0.337,0.336,0.449
			c0.15,0.112,0.299,0.187,0.486,0.243c0.187,0.056,0.393,0.094,0.617,0.094c0.299,0,0.542-0.038,0.785-0.094
			c0.243-0.056,0.468-0.131,0.692-0.243c0.224-0.112,0.43-0.262,0.617-0.411c0.187-0.15,0.374-0.337,0.561-0.524V29.949z"/>
		<path fill="#FFFFFF" d="M82.667,26.097c0.935-1.01,1.982-1.514,3.141-1.514c1.01,0,1.795,0.318,2.356,0.991
			c0.524,0.636,0.804,1.514,0.804,2.599v4.656c0.598,0.112,0.954,0.187,1.066,0.225c0.187,0.037,0.299,0.168,0.299,0.355v0.804
			h-3.029v-6.021c0-1.496-0.655-2.281-1.982-2.281c-0.935,0-1.795,0.449-2.58,1.328v5.61c0.037,0,0.411,0.075,1.085,0.224
			c0.187,0.038,0.28,0.168,0.28,0.355v0.785H79.75v-0.785c0-0.187,0.075-0.318,0.262-0.355l1.085-0.206v-6.75
			c-0.598-0.112-0.972-0.187-1.085-0.224c-0.187-0.037-0.262-0.168-0.262-0.355v-0.785h1.346h0.972c0.224,0,0.374,0.112,0.449,0.337
			l0.15,1.028V26.097z"/>
		<path fill="#FFFFFF" d="M99.237,33.016c0.168,0.038,0.28,0.187,0.28,0.355v0.804h-1.215h-0.131h-0.598
			c-0.15,0-0.28-0.037-0.393-0.075c-0.112-0.038-0.15-0.15-0.187-0.299l-0.187-0.898c-0.262,0.224-0.524,0.43-0.748,0.617
			c-0.224,0.187-0.486,0.337-0.748,0.449c-0.262,0.112-0.524,0.206-0.823,0.281c-0.299,0.075-0.636,0.093-1.01,0.093
			s-0.692-0.056-1.01-0.168c-0.318-0.112-0.617-0.243-0.841-0.449c-0.224-0.206-0.412-0.467-0.561-0.785
			c-0.15-0.318-0.206-0.692-0.206-1.122c0-0.374,0.094-0.748,0.299-1.085c0.206-0.336,0.561-0.673,1.01-0.935
			c0.449-0.262,1.047-0.505,1.795-0.673s1.645-0.243,2.73-0.243v-0.729c0-0.748-0.168-1.309-0.486-1.683
			c-0.318-0.374-0.785-0.58-1.402-0.58c-0.411,0-0.748,0.056-1.028,0.168c-0.28,0.112-0.505,0.206-0.711,0.336
			c-0.206,0.131-0.393,0.225-0.542,0.337c-0.15,0.112-0.281,0.15-0.43,0.15c-0.112,0-0.224-0.019-0.299-0.075
			c-0.075-0.056-0.15-0.15-0.187-0.224l-0.299-0.524c0.524-0.505,1.085-0.86,1.683-1.122c0.598-0.262,1.271-0.374,2.019-0.374
			c0.524,0,1.01,0.075,1.421,0.262c0.411,0.187,0.748,0.411,1.028,0.71c0.28,0.299,0.486,0.673,0.636,1.122
			c0.15,0.449,0.206,0.935,0.206,1.459v4.731c0.262,0.056,0.823,0.168,0.935,0.206V33.016z M96.657,29.949
			c-0.767,0-1.421,0.037-1.945,0.131c-0.524,0.094-0.972,0.243-1.309,0.393c-0.337,0.15-0.598,0.337-0.748,0.561
			c-0.15,0.225-0.224,0.449-0.224,0.711c0,0.262,0.056,0.449,0.131,0.636c0.075,0.187,0.187,0.337,0.337,0.449
			c0.15,0.112,0.299,0.187,0.486,0.243c0.187,0.056,0.393,0.094,0.617,0.094c0.299,0,0.542-0.038,0.785-0.094
			c0.243-0.056,0.467-0.131,0.692-0.243c0.224-0.112,0.43-0.262,0.617-0.411c0.187-0.15,0.374-0.337,0.561-0.524V29.949z"/>
		<path fill="#FFFFFF" d="M114.027,30.398c0,1.159-0.412,2.075-1.234,2.749c-0.842,0.711-2.001,1.066-3.478,1.066h-6.077V33.39
			c0-0.187,0.094-0.299,0.281-0.336l1.066-0.225V22.171c-0.598-0.112-0.954-0.187-1.066-0.224c-0.187-0.038-0.281-0.15-0.281-0.337
			v-0.822h5.628c2.393,0,3.871,0.692,4.45,2.038c0.187,0.449,0.262,0.879,0.262,1.328c0,0.449-0.037,0.823-0.15,1.122
			s-0.243,0.58-0.449,0.841c-0.449,0.561-1.084,0.954-1.907,1.215C113.054,27.724,114.027,28.753,114.027,30.398z M106.398,26.808
			h2.393c1.496,0,2.431-0.449,2.805-1.346c0.112-0.299,0.187-0.598,0.187-0.935c0-0.785-0.224-1.346-0.711-1.721
			c-0.486-0.374-1.197-0.561-2.206-0.561h-2.468V26.808z M109.296,32.791c1.496,0,2.412-0.486,2.786-1.459
			c0.112-0.299,0.15-0.617,0.15-0.972c0-0.692-0.224-1.234-0.711-1.645c-0.486-0.412-1.234-0.598-2.225-0.598h-2.898v4.656h2.917
			L109.296,32.791z"/>
		<path fill="#FFFFFF" d="M119.069,24.601c0.561,0,1.084,0.094,1.571,0.281c0.486,0.187,0.898,0.449,1.234,0.804
			c0.336,0.355,0.636,0.804,0.822,1.328c0.187,0.524,0.299,1.122,0.299,1.795c0,0.262-0.018,0.449-0.075,0.524
			c-0.056,0.075-0.187,0.131-0.337,0.131h-6.283c0,0.598,0.075,1.122,0.224,1.57s0.374,0.785,0.636,1.085
			c0.262,0.299,0.561,0.524,0.935,0.673c0.374,0.15,0.748,0.224,1.197,0.224c0.411,0,0.785-0.038,1.085-0.131
			c0.299-0.094,0.561-0.206,0.785-0.318c0.224-0.112,0.412-0.206,0.561-0.299c0.15-0.094,0.262-0.15,0.374-0.15
			c0.15,0,0.243,0.056,0.318,0.168l0.468,0.617c-0.206,0.262-0.449,0.449-0.748,0.636c-0.299,0.187-0.58,0.355-0.916,0.468
			c-0.336,0.112-0.673,0.206-1.01,0.262c-0.337,0.056-0.692,0.094-1.028,0.094c-0.655,0-1.253-0.112-1.814-0.337
			c-0.561-0.224-1.028-0.561-1.44-0.991c-0.412-0.43-0.711-0.954-0.935-1.589c-0.225-0.636-0.337-1.346-0.337-2.169
			c0-0.673,0.112-1.272,0.318-1.833c0.206-0.561,0.505-1.084,0.879-1.496c0.374-0.411,0.842-0.748,1.402-0.991
			c0.561-0.243,1.178-0.355,1.851-0.355H119.069z M119.125,25.817c-0.804,0-1.44,0.224-1.888,0.692
			c-0.449,0.468-0.748,1.122-0.86,1.945h5.142c0-0.374-0.056-0.729-0.168-1.047c-0.112-0.318-0.243-0.617-0.449-0.842
			c-0.206-0.224-0.467-0.411-0.766-0.542c-0.299-0.131-0.654-0.187-1.029-0.187L119.125,25.817z"/>
		<path fill="#FFFFFF" d="M127.997,33.409v0.804h-4.375v-0.804c0-0.187,0.112-0.318,0.299-0.355l1.047-0.206V21.797
			c-0.598-0.112-0.935-0.187-1.047-0.224c-0.187-0.037-0.299-0.15-0.299-0.336v-0.804h3.029v12.397
			c0.598,0.112,0.935,0.187,1.047,0.225C127.885,33.091,127.997,33.221,127.997,33.409z"/>
		<path fill="#FFFFFF" d="M134.552,24.938c0.561,0.224,1.047,0.561,1.44,0.972c0.392,0.412,0.692,0.935,0.898,1.533
			c0.206,0.598,0.318,1.272,0.318,2.02s-0.112,1.421-0.318,2.019c-0.206,0.598-0.505,1.122-0.898,1.533
			c-0.393,0.411-0.879,0.748-1.44,0.972c-0.561,0.224-1.178,0.336-1.87,0.336c-0.692,0-1.309-0.112-1.87-0.336
			c-0.561-0.224-1.047-0.561-1.44-0.972c-0.392-0.411-0.692-0.935-0.916-1.533c-0.224-0.598-0.299-1.271-0.299-2.019
			s0.075-1.421,0.299-2.02c0.225-0.598,0.524-1.122,0.916-1.533c0.393-0.412,0.879-0.748,1.44-0.972s1.178-0.337,1.87-0.337
			C133.374,24.601,133.991,24.714,134.552,24.938z M134.777,32.118c0.449-0.636,0.692-1.515,0.692-2.637
			c0-1.122-0.243-2.001-0.692-2.637c-0.449-0.636-1.159-0.935-2.094-0.935c-0.486,0-0.898,0.075-1.234,0.224
			c-0.336,0.15-0.636,0.411-0.86,0.71s-0.411,0.673-0.524,1.122c-0.112,0.449-0.187,0.972-0.187,1.533
			c0,0.561,0.075,1.047,0.187,1.496c0.112,0.449,0.299,0.823,0.524,1.122c0.224,0.299,0.524,0.524,0.86,0.673
			c0.337,0.15,0.748,0.262,1.234,0.262C133.617,33.053,134.328,32.754,134.777,32.118z"/>
	</g>
	<g>
		<g>
			<path fill="#FFFFFF" d="M60.875,16.949c0.088,0.018,0.132,0.079,0.132,0.168v0.38h-1.422V13.68h-1.891v3.172
				c0.354,0.053,0.548,0.088,0.583,0.097c0.088,0.018,0.133,0.079,0.133,0.168v0.38h-0.716H56.9h-0.689v-0.38
				c0-0.088,0.053-0.15,0.142-0.168c0.035,0,0.212-0.035,0.548-0.097v-3.154l-0.495-0.062c-0.141-0.035-0.212-0.097-0.212-0.203
				v-0.318H56.9v-0.248c0-0.565,0.177-1.007,0.512-1.343c0.354-0.336,0.848-0.503,1.52-0.521c0.548,0,1.007,0.141,1.361,0.415
				c0.159,0.123,0.247,0.265,0.247,0.459c0,0.141-0.062,0.283-0.177,0.388c-0.106,0.106-0.221,0.159-0.336,0.159
				c-0.115,0-0.194,0-0.265-0.035c-0.071-0.035-0.123-0.071-0.177-0.124c-0.106-0.106-0.159-0.238-0.159-0.388
				c0-0.062,0-0.124,0.018-0.177c-0.274-0.097-0.539-0.123-0.804-0.071c-0.265,0.053-0.468,0.15-0.609,0.283
				c-0.239,0.212-0.362,0.539-0.362,0.972v0.23h2.703v3.737L60.875,16.949z M59.082,16.949l0.503-0.097v0.645h-0.636v-0.38
				C58.949,17.028,58.994,16.966,59.082,16.949z"/>
			<path fill="#FFFFFF" d="M61.086,17.575h-2.215v-0.458c0-0.129,0.073-0.22,0.196-0.245l0.44-0.085v-3.029h-1.734v3.026
				c0.314,0.048,0.487,0.079,0.524,0.089c0.119,0.024,0.192,0.115,0.192,0.244v0.458h-2.356v-0.458c0-0.126,0.078-0.219,0.204-0.245
				c0.037-0.002,0.156-0.024,0.307-0.053l0.178-0.033v-3.02l-0.426-0.053c-0.189-0.047-0.281-0.141-0.281-0.281v-0.396h0.707v-0.169
				c0-0.572,0.18-1.043,0.535-1.398c0.367-0.348,0.881-0.526,1.573-0.544c0.568,0,1.042,0.145,1.411,0.432
				c0.189,0.147,0.278,0.313,0.278,0.521c0,0.165-0.074,0.328-0.202,0.446c-0.117,0.117-0.252,0.18-0.388,0.18
				c-0.123,0-0.213,0-0.3-0.044c-0.082-0.041-0.141-0.082-0.197-0.138c-0.119-0.119-0.182-0.272-0.182-0.444
				c0-0.041,0-0.083,0.005-0.125c-0.243-0.076-0.471-0.092-0.698-0.046c-0.245,0.049-0.437,0.138-0.571,0.263
				c-0.224,0.199-0.337,0.507-0.337,0.915v0.152h2.703v3.751l0.44,0.085c0.123,0.024,0.196,0.116,0.196,0.245V17.575z
				 M59.664,17.418h1.266v-0.302c0-0.068-0.035-0.084-0.069-0.091l-0.567-0.109v-3.723H57.59v-0.308c0-0.455,0.131-0.801,0.388-1.03
				c0.154-0.144,0.372-0.246,0.646-0.301c0.275-0.054,0.551-0.03,0.845,0.074l0.072,0.025l-0.024,0.073
				c-0.014,0.041-0.014,0.095-0.014,0.152c0,0.131,0.046,0.243,0.136,0.333c0.044,0.044,0.09,0.076,0.156,0.109
				c0.054,0.027,0.124,0.027,0.23,0.027c0.096,0,0.19-0.046,0.28-0.136c0.098-0.091,0.154-0.211,0.154-0.333
				c0-0.158-0.067-0.281-0.217-0.398c-0.341-0.265-0.783-0.399-1.313-0.399c-0.649,0.017-1.13,0.181-1.466,0.5
				c-0.328,0.328-0.488,0.749-0.488,1.286v0.326h-0.707v0.24c0,0.031,0,0.089,0.153,0.127l0.554,0.068v3.288l-0.305,0.057
				c-0.219,0.041-0.289,0.054-0.321,0.054c-0.037,0.009-0.063,0.04-0.063,0.09v0.302h2.043v-0.302c0-0.068-0.035-0.084-0.07-0.091
				c-0.033-0.008-0.219-0.042-0.579-0.097l-0.067-0.01v-3.317h2.047V17.418z M59.028,17.418h0.48v-0.472l-0.41,0.079
				c-0.034,0.007-0.069,0.023-0.069,0.091V17.418z"/>
		</g>
		<g>
			<path fill="#FFFFFF" d="M63.13,12.955c0.309,0,0.698,0.079,1.166,0.239v0.309v0.839h-0.344c-0.088,0-0.133-0.035-0.15-0.123
				c0-0.018-0.018-0.212-0.053-0.583c-0.265-0.062-0.495-0.097-0.689-0.097h-0.009c-0.247,0-0.451,0.071-0.609,0.194
				c-0.159,0.124-0.239,0.256-0.239,0.406c0,0.15,0.035,0.265,0.106,0.336c0.124,0.142,0.292,0.239,0.513,0.309
				c0.221,0.071,0.406,0.115,0.548,0.168l0.424,0.159c0.142,0.053,0.265,0.142,0.371,0.23c0.248,0.194,0.362,0.451,0.362,0.778
				c0,0.424-0.142,0.768-0.433,1.025c-0.3,0.265-0.707,0.415-1.184,0.415c-0.477,0-0.972-0.079-1.449-0.238v-1.166h0.318
				c0.071,0,0.115,0.035,0.132,0.106c0,0.027,0.018,0.212,0.053,0.565c0.247,0.124,0.557,0.177,0.91,0.177
				c0.292,0,0.521-0.079,0.689-0.221c0.15-0.133,0.23-0.283,0.23-0.451c0-0.168-0.035-0.292-0.106-0.371
				c-0.071-0.079-0.159-0.159-0.265-0.212c-0.106-0.053-0.23-0.106-0.371-0.142c-0.389-0.124-0.663-0.212-0.822-0.283
				c-0.159-0.071-0.292-0.159-0.398-0.247c-0.247-0.203-0.371-0.477-0.371-0.83c0-0.362,0.142-0.654,0.424-0.901
				c0.3-0.265,0.707-0.389,1.254-0.389H63.13z"/>
			<path fill="#FFFFFF" d="M62.91,17.636c-0.488,0-0.998-0.084-1.474-0.242l-0.053-0.018v-1.301h0.396
				c0.106,0,0.182,0.06,0.208,0.165c0.002,0.049,0.034,0.368,0.051,0.533c0.218,0.1,0.499,0.15,0.837,0.15
				c0.264,0,0.479-0.068,0.639-0.202c0.135-0.12,0.202-0.248,0.202-0.391c0-0.148-0.029-0.255-0.086-0.319
				c-0.078-0.087-0.159-0.153-0.241-0.194c-0.127-0.064-0.24-0.107-0.355-0.136c-0.414-0.131-0.674-0.216-0.834-0.287
				c-0.15-0.067-0.29-0.154-0.416-0.259c-0.265-0.218-0.399-0.517-0.399-0.891c0-0.381,0.148-0.695,0.451-0.96
				c0.31-0.273,0.734-0.407,1.297-0.408l0,0c0.001,0,0.002,0,0.004,0h0.005c0.315,0.002,0.713,0.083,1.182,0.243l0.053,0.018v1.282
				h-0.423c-0.126,0-0.202-0.063-0.227-0.186c-0.002-0.034-0.018-0.21-0.049-0.535c-0.249-0.055-0.452-0.083-0.617-0.083
				c-0.23,0-0.419,0.06-0.57,0.178c-0.142,0.111-0.208,0.22-0.208,0.345c0,0.129,0.029,0.226,0.083,0.28
				c0.114,0.131,0.266,0.221,0.481,0.29c0.094,0.03,0.182,0.056,0.263,0.079c0.109,0.032,0.206,0.06,0.288,0.09l0.424,0.159
				c0.166,0.063,0.304,0.169,0.394,0.243c0.262,0.206,0.391,0.48,0.391,0.838c0,0.451-0.155,0.815-0.46,1.083
				C63.823,17.486,63.396,17.636,62.91,17.636z M61.539,17.263c0.445,0.142,0.918,0.217,1.371,0.217
				c0.447,0,0.839-0.137,1.132-0.395c0.27-0.237,0.406-0.562,0.406-0.966c0-0.306-0.109-0.54-0.333-0.716
				c-0.082-0.068-0.206-0.164-0.35-0.218l-0.424-0.159c-0.079-0.029-0.171-0.056-0.276-0.086c-0.082-0.024-0.172-0.05-0.268-0.08
				c-0.243-0.078-0.417-0.183-0.548-0.332c-0.082-0.082-0.125-0.213-0.125-0.387c0-0.175,0.088-0.328,0.269-0.468
				c0.18-0.14,0.401-0.211,0.657-0.211c0.198,0,0.429,0.032,0.716,0.099l0.055,0.013l0.006,0.056
				c0.049,0.518,0.053,0.576,0.053,0.59c0.009,0.035,0.02,0.045,0.072,0.045h0.266V13.25c-0.432-0.143-0.797-0.216-1.084-0.217
				c-0.532,0.001-0.913,0.118-1.197,0.369c-0.271,0.237-0.398,0.505-0.398,0.843c0,0.329,0.112,0.58,0.343,0.77
				c0.115,0.096,0.243,0.175,0.38,0.236c0.153,0.068,0.421,0.155,0.814,0.28c0.122,0.031,0.245,0.077,0.382,0.146
				c0.1,0.05,0.197,0.127,0.288,0.23c0.083,0.094,0.126,0.236,0.126,0.423c0,0.188-0.086,0.359-0.256,0.509
				c-0.19,0.16-0.439,0.24-0.741,0.24c-0.387,0-0.696-0.061-0.945-0.185l-0.039-0.019l-0.004-0.043
				c-0.045-0.447-0.053-0.548-0.053-0.573c-0.008-0.021-0.024-0.028-0.054-0.028h-0.24V17.263z"/>
		</g>
		<g>
			<path fill="#FFFFFF" d="M66.858,17.116v0.38h-2.058v-0.38c0-0.079,0.053-0.15,0.133-0.168c0.079-0.018,0.512-0.097,0.512-0.097
				v-3.189c0,0-0.433-0.079-0.512-0.097c-0.079-0.018-0.133-0.088-0.133-0.168v-0.371h1.422v3.826c0,0,0.424,0.079,0.504,0.097
				C66.805,16.966,66.858,17.037,66.858,17.116z M65.321,11.833c-0.035-0.071-0.044-0.141-0.044-0.212
				c0-0.071,0.009-0.15,0.044-0.221c0.035-0.071,0.071-0.133,0.123-0.186c0.053-0.053,0.106-0.088,0.177-0.124
				c0.071-0.035,0.142-0.044,0.212-0.044s0.142,0.009,0.212,0.044c0.071,0.035,0.124,0.071,0.177,0.124
				c0.053,0.053,0.088,0.115,0.124,0.186c0.035,0.071,0.053,0.15,0.053,0.221c0,0.071-0.018,0.142-0.053,0.212
				c-0.035,0.071-0.071,0.124-0.124,0.177c-0.053,0.053-0.106,0.088-0.177,0.124c-0.071,0.035-0.142,0.044-0.212,0.044
				s-0.141-0.009-0.212-0.044c-0.071-0.035-0.123-0.071-0.177-0.124C65.391,11.957,65.356,11.904,65.321,11.833z"/>
			<path fill="#FFFFFF" d="M66.936,17.575h-2.215v-0.458c0-0.118,0.08-0.219,0.194-0.244c0.061-0.013,0.327-0.063,0.451-0.086
				v-3.059c-0.124-0.023-0.39-0.072-0.451-0.086c-0.114-0.025-0.194-0.126-0.194-0.245v-0.449H66.3v3.839
				c0.122,0.023,0.382,0.072,0.443,0.086c0.114,0.025,0.193,0.126,0.193,0.244V17.575z M64.877,17.418h1.902v-0.302
				c0-0.045-0.029-0.082-0.071-0.091c-0.079-0.018-0.501-0.097-0.501-0.097l-0.064-0.012v-3.812h-1.266v0.293
				c0,0.045,0.029,0.082,0.072,0.092c0.079,0.018,0.509,0.097,0.509,0.097l0.064,0.012v3.319l-0.064,0.012
				c0,0-0.43,0.079-0.509,0.097c-0.042,0.009-0.072,0.047-0.072,0.091V17.418z M65.833,12.256c-0.066,0-0.154-0.006-0.247-0.052
				c-0.084-0.042-0.141-0.082-0.197-0.138c-0.056-0.056-0.097-0.115-0.138-0.197c-0.036-0.072-0.053-0.149-0.053-0.247
				c0-0.101,0.017-0.185,0.053-0.256c0.035-0.069,0.075-0.143,0.138-0.206c0.056-0.056,0.113-0.097,0.197-0.138
				c0.094-0.047,0.186-0.053,0.247-0.053c0.061,0,0.153,0.006,0.247,0.053c0.084,0.042,0.141,0.083,0.197,0.139
				c0.059,0.059,0.098,0.125,0.138,0.206c0.039,0.079,0.061,0.17,0.061,0.256c0,0.083-0.02,0.166-0.061,0.247
				c-0.042,0.083-0.083,0.142-0.138,0.197c-0.056,0.056-0.113,0.096-0.197,0.138C65.988,12.25,65.9,12.256,65.833,12.256z
				 M65.833,11.125c-0.073,0-0.127,0.011-0.177,0.036c-0.068,0.034-0.112,0.065-0.156,0.109c-0.044,0.044-0.075,0.098-0.109,0.165
				c-0.024,0.049-0.036,0.109-0.036,0.186c0,0.073,0.011,0.127,0.036,0.177c0.033,0.067,0.065,0.113,0.109,0.156
				c0.044,0.044,0.088,0.075,0.156,0.109c0.05,0.025,0.103,0.036,0.177,0.036c0.073,0,0.128-0.011,0.177-0.036
				c0.069-0.035,0.113-0.065,0.156-0.109c0.044-0.044,0.075-0.089,0.109-0.157c0.03-0.06,0.045-0.118,0.045-0.177
				c0-0.061-0.016-0.129-0.045-0.186c-0.034-0.067-0.065-0.121-0.109-0.165c-0.044-0.044-0.088-0.075-0.156-0.109
				C65.96,11.136,65.906,11.125,65.833,11.125z"/>
		</g>
		<g>
			<path fill="#FFFFFF" d="M70.046,13.114c0.265,0.106,0.495,0.265,0.68,0.459c0.186,0.194,0.327,0.442,0.424,0.724
				c0.097,0.283,0.15,0.601,0.15,0.954c0,0.353-0.053,0.671-0.15,0.954s-0.238,0.53-0.424,0.724
				c-0.186,0.194-0.415,0.353-0.68,0.459c-0.265,0.106-0.557,0.159-0.884,0.159c-0.327,0-0.618-0.053-0.883-0.159
				c-0.265-0.106-0.495-0.265-0.68-0.459c-0.186-0.194-0.327-0.442-0.433-0.724c-0.106-0.283-0.141-0.601-0.141-0.954
				c0-0.353,0.035-0.671,0.141-0.954c0.106-0.283,0.248-0.53,0.433-0.724c0.186-0.194,0.415-0.354,0.68-0.459
				c0.265-0.106,0.557-0.159,0.883-0.159C69.489,12.955,69.781,13.008,70.046,13.114z M70.152,16.507
				c0.212-0.3,0.327-0.716,0.327-1.246c0-0.53-0.115-0.945-0.327-1.246c-0.212-0.3-0.548-0.442-0.99-0.442
				c-0.23,0-0.424,0.035-0.583,0.106c-0.159,0.071-0.3,0.194-0.406,0.336c-0.106,0.141-0.194,0.318-0.248,0.53
				c-0.053,0.212-0.088,0.459-0.088,0.725c0,0.265,0.035,0.495,0.088,0.707c0.053,0.212,0.142,0.389,0.248,0.53
				c0.106,0.141,0.247,0.247,0.406,0.318c0.159,0.071,0.354,0.124,0.583,0.124C69.604,16.949,69.94,16.807,70.152,16.507z"/>
			<path fill="#FFFFFF" d="M69.162,17.627c-0.337,0-0.636-0.054-0.912-0.164c-0.27-0.108-0.508-0.269-0.708-0.478
				c-0.184-0.193-0.335-0.445-0.45-0.751c-0.1-0.267-0.146-0.579-0.146-0.982s0.046-0.715,0.146-0.982
				c0.115-0.306,0.266-0.558,0.45-0.751c0.2-0.21,0.438-0.37,0.708-0.478c0.277-0.111,0.576-0.165,0.912-0.165
				c0.337,0,0.635,0.054,0.913,0.165c0.27,0.108,0.508,0.269,0.708,0.478c0.189,0.198,0.338,0.452,0.441,0.753
				c0.103,0.298,0.155,0.628,0.155,0.98c0,0.351-0.052,0.681-0.155,0.98c-0.104,0.301-0.252,0.555-0.441,0.753
				c-0.2,0.209-0.438,0.37-0.708,0.478C69.798,17.574,69.5,17.627,69.162,17.627z M69.162,13.033c-0.317,0-0.596,0.05-0.854,0.154
				c-0.249,0.099-0.468,0.247-0.653,0.441c-0.169,0.177-0.309,0.412-0.416,0.698c-0.093,0.248-0.136,0.543-0.136,0.927
				c0,0.384,0.043,0.678,0.136,0.927c0.107,0.286,0.247,0.521,0.416,0.698c0.184,0.193,0.404,0.341,0.653,0.441
				c0.258,0.103,0.537,0.153,0.854,0.153c0.317,0,0.597-0.05,0.855-0.153c0.249-0.1,0.469-0.248,0.653-0.441
				c0.174-0.182,0.31-0.416,0.406-0.696c0.097-0.282,0.146-0.594,0.146-0.929c0-0.334-0.049-0.647-0.146-0.929
				c-0.096-0.28-0.233-0.514-0.406-0.696c-0.184-0.193-0.404-0.341-0.653-0.441C69.759,13.084,69.479,13.033,69.162,13.033z
				 M69.162,17.027c-0.213,0-0.42-0.044-0.615-0.131c-0.177-0.079-0.328-0.197-0.437-0.342c-0.12-0.161-0.208-0.349-0.261-0.558
				c-0.061-0.245-0.091-0.482-0.091-0.726c0-0.252,0.031-0.502,0.091-0.744c0.053-0.21,0.14-0.398,0.261-0.558
				c0.12-0.16,0.276-0.288,0.437-0.36c0.168-0.075,0.375-0.113,0.615-0.113c0.477,0,0.831,0.16,1.054,0.475
				c0.226,0.321,0.341,0.756,0.341,1.291c0,0.535-0.115,0.97-0.341,1.291C69.993,16.867,69.639,17.027,69.162,17.027z
				 M69.162,13.652c-0.218,0-0.403,0.033-0.551,0.099c-0.138,0.061-0.271,0.171-0.375,0.311c-0.108,0.143-0.187,0.312-0.234,0.502
				c-0.056,0.226-0.086,0.47-0.086,0.706c0,0.234,0.027,0.452,0.086,0.688c0.048,0.189,0.126,0.358,0.234,0.502
				c0.094,0.126,0.221,0.225,0.375,0.293c0.175,0.078,0.361,0.117,0.551,0.117c0.423,0,0.734-0.138,0.926-0.409
				c0.207-0.294,0.312-0.698,0.312-1.201c0-0.503-0.105-0.907-0.312-1.201C69.894,13.786,69.591,13.652,69.162,13.652z"/>
		</g>
		<g>
			<path fill="#FFFFFF" d="M72.385,17.267c-0.194-0.194-0.283-0.477-0.283-0.848V13.68h-0.539c-0.053,0-0.088-0.009-0.124-0.035
				c-0.035-0.027-0.044-0.079-0.044-0.133v-0.309l0.733-0.097l0.177-1.387c0-0.044,0.018-0.079,0.053-0.106
				c0.035-0.026,0.071-0.035,0.123-0.035h0.398v1.537h1.281v0.574H72.88v2.686c0,0.194,0.044,0.336,0.133,0.424
				c0.088,0.088,0.221,0.133,0.362,0.133c0.088,0,0.159-0.018,0.221-0.035c0.062-0.017,0.115-0.044,0.159-0.071
				c0.044-0.027,0.071-0.053,0.106-0.071c0.035-0.018,0.071-0.035,0.088-0.035c0.035,0,0.071,0.018,0.106,0.071l0.23,0.371
				c-0.141,0.123-0.3,0.23-0.495,0.3c-0.194,0.071-0.388,0.106-0.592,0.106C72.844,17.567,72.579,17.461,72.385,17.267z"/>
			<path fill="#FFFFFF" d="M73.198,17.645c-0.362,0-0.654-0.109-0.868-0.323c-0.206-0.205-0.306-0.501-0.306-0.903v-2.66h-0.461
				c-0.072,0-0.123-0.015-0.171-0.051c-0.075-0.057-0.075-0.161-0.075-0.195v-0.377l0.741-0.098l0.169-1.327
				c-0.001-0.059,0.029-0.117,0.084-0.159c0.048-0.035,0.099-0.051,0.171-0.051h0.476v1.537h1.281v0.73h-1.281v2.608
				c0,0.172,0.037,0.296,0.11,0.369c0.07,0.07,0.182,0.11,0.307,0.11c0.079,0,0.145-0.017,0.199-0.032
				c0.046-0.013,0.092-0.033,0.141-0.063c0.018-0.01,0.032-0.021,0.046-0.031c0.022-0.016,0.042-0.031,0.066-0.042
				c0.054-0.027,0.089-0.044,0.123-0.044c0.067,0,0.124,0.035,0.171,0.105l0.266,0.43l-0.05,0.044
				c-0.166,0.145-0.336,0.248-0.52,0.315C73.612,17.609,73.41,17.645,73.198,17.645z M71.474,13.271v0.241
				c0,0.058,0.013,0.07,0.013,0.07c0.017,0.013,0.034,0.02,0.077,0.02h0.617v2.817c0,0.359,0.085,0.618,0.26,0.793
				c0.187,0.187,0.435,0.278,0.758,0.278c0.193,0,0.378-0.033,0.565-0.101c0.147-0.053,0.285-0.133,0.42-0.243l-0.194-0.314
				c-0.009-0.014-0.025-0.034-0.039-0.034c-0.003,0.002-0.036,0.018-0.053,0.027c-0.016,0.008-0.029,0.018-0.043,0.028
				c-0.017,0.013-0.035,0.026-0.057,0.039c-0.061,0.037-0.119,0.062-0.178,0.079c-0.069,0.02-0.147,0.039-0.242,0.039
				c-0.169,0-0.317-0.055-0.417-0.156c-0.103-0.103-0.156-0.264-0.156-0.479V13.61h1.281v-0.417h-1.281v-1.537h-0.319
				c-0.043,0-0.059,0.007-0.077,0.02c-0.016,0.012-0.022,0.024-0.022,0.043l-0.185,1.457L71.474,13.271z"/>
		</g>
		<g>
			<path fill="#FFFFFF" d="M76.444,12.955c0.265,0,0.513,0.044,0.742,0.133c0.23,0.088,0.424,0.212,0.583,0.38
				c0.159,0.168,0.3,0.38,0.389,0.627c0.088,0.247,0.141,0.53,0.141,0.848c0,0.124-0.009,0.212-0.035,0.247
				c-0.027,0.035-0.088,0.062-0.159,0.062h-2.968c0,0.283,0.035,0.53,0.106,0.742c0.071,0.212,0.177,0.371,0.3,0.513
				c0.123,0.141,0.265,0.247,0.442,0.318c0.177,0.071,0.353,0.106,0.565,0.106c0.194,0,0.371-0.018,0.512-0.062
				c0.142-0.044,0.265-0.097,0.371-0.15c0.106-0.053,0.194-0.097,0.265-0.141c0.071-0.044,0.123-0.071,0.177-0.071
				c0.071,0,0.115,0.026,0.15,0.079l0.221,0.292c-0.097,0.123-0.212,0.212-0.353,0.3c-0.142,0.088-0.274,0.168-0.433,0.221
				c-0.159,0.053-0.318,0.097-0.477,0.124c-0.159,0.026-0.327,0.044-0.486,0.044c-0.309,0-0.592-0.053-0.857-0.159
				c-0.265-0.106-0.486-0.265-0.68-0.468c-0.194-0.203-0.336-0.451-0.442-0.751c-0.106-0.3-0.159-0.636-0.159-1.025
				c0-0.318,0.053-0.601,0.15-0.866c0.097-0.265,0.238-0.513,0.415-0.707s0.398-0.353,0.663-0.468
				c0.265-0.115,0.557-0.168,0.875-0.168H76.444z M76.471,13.53c-0.38,0-0.68,0.106-0.892,0.327
				c-0.212,0.221-0.353,0.53-0.406,0.919h2.43c0-0.177-0.027-0.344-0.079-0.495c-0.053-0.15-0.115-0.292-0.212-0.398
				c-0.097-0.106-0.221-0.194-0.362-0.256c-0.142-0.062-0.309-0.088-0.486-0.088L76.471,13.53z"/>
			<path fill="#FFFFFF" d="M76.497,17.645c-0.319,0-0.609-0.054-0.886-0.164c-0.264-0.106-0.495-0.265-0.708-0.487
				c-0.197-0.205-0.347-0.46-0.459-0.779c-0.11-0.312-0.164-0.656-0.164-1.051c0-0.316,0.051-0.608,0.155-0.893
				c0.104-0.283,0.252-0.537,0.431-0.733c0.187-0.206,0.419-0.37,0.689-0.487c0.263-0.114,0.561-0.172,0.888-0.174l0,0
				c0.003,0,0.006,0,0.008,0h0.009c0.267,0.002,0.52,0.048,0.752,0.138c0.247,0.095,0.447,0.226,0.612,0.399
				c0.18,0.19,0.321,0.417,0.406,0.655c0.097,0.271,0.146,0.565,0.146,0.874c0,0.161-0.015,0.246-0.051,0.294
				c-0.043,0.058-0.128,0.094-0.222,0.094h-2.889c0.006,0.241,0.04,0.456,0.101,0.639c0.059,0.178,0.147,0.328,0.285,0.486
				c0.12,0.137,0.254,0.234,0.412,0.297c0.174,0.07,0.339,0.101,0.536,0.101c0.2,0,0.365-0.02,0.489-0.058
				c0.123-0.039,0.243-0.087,0.359-0.146c0.098-0.049,0.189-0.094,0.259-0.138c0.081-0.051,0.146-0.082,0.218-0.082
				c0.094,0,0.164,0.038,0.215,0.115l0.254,0.336l-0.037,0.047c-0.116,0.147-0.253,0.243-0.373,0.318
				c-0.149,0.093-0.285,0.174-0.45,0.229c-0.186,0.062-0.341,0.102-0.489,0.127C76.815,17.63,76.647,17.645,76.497,17.645z
				 M76.453,13.033c-0.313,0.001-0.586,0.054-0.834,0.161c-0.249,0.108-0.463,0.259-0.636,0.449
				c-0.164,0.181-0.303,0.417-0.399,0.681c-0.098,0.267-0.145,0.542-0.145,0.839c0,0.377,0.05,0.704,0.154,0.999
				c0.105,0.297,0.244,0.534,0.425,0.723c0.197,0.206,0.41,0.353,0.653,0.45c0.258,0.103,0.528,0.153,0.828,0.153
				c0.142,0,0.301-0.014,0.473-0.043c0.14-0.023,0.288-0.062,0.465-0.121c0.149-0.049,0.271-0.123,0.416-0.213
				c0.132-0.083,0.221-0.154,0.295-0.236l-0.183-0.242c-0.046-0.069-0.098-0.067-0.223,0.01c-0.077,0.047-0.171,0.095-0.272,0.145
				c-0.123,0.062-0.252,0.114-0.382,0.155c-0.139,0.043-0.319,0.065-0.536,0.065c-0.215,0-0.404-0.035-0.594-0.112
				c-0.181-0.072-0.335-0.183-0.472-0.339c-0.15-0.172-0.25-0.343-0.316-0.539c-0.073-0.219-0.11-0.476-0.11-0.767v-0.078h3.047
				c0.055,0,0.09-0.021,0.097-0.031c0.003-0.005,0.02-0.039,0.02-0.2c0-0.292-0.046-0.568-0.137-0.822
				c-0.078-0.217-0.206-0.425-0.372-0.6c-0.148-0.156-0.329-0.274-0.554-0.361C76.941,13.077,76.704,13.034,76.453,13.033z
				 M77.68,14.854h-2.598l0.012-0.089c0.055-0.4,0.199-0.724,0.428-0.962c0.224-0.233,0.543-0.351,0.949-0.351h0.189l-0.018,0.018
				c0.126,0.013,0.239,0.042,0.338,0.085c0.149,0.065,0.284,0.16,0.389,0.275c0.112,0.122,0.178,0.283,0.228,0.424
				c0.056,0.159,0.084,0.334,0.084,0.521V14.854z M75.264,14.697h2.258c-0.007-0.14-0.031-0.271-0.073-0.391
				c-0.045-0.127-0.103-0.27-0.196-0.371c-0.09-0.099-0.207-0.181-0.336-0.237c-0.124-0.054-0.277-0.082-0.454-0.082h-0.169
				c-0.277,0.029-0.498,0.127-0.658,0.294C75.446,14.107,75.322,14.371,75.264,14.697z"/>
		</g>
		<g>
			<path fill="#FFFFFF" d="M80.071,13.936c0.327-0.663,0.778-0.999,1.361-0.999c0.23,0,0.433,0.053,0.609,0.159l-0.097,0.592
				c-0.018,0.071-0.062,0.115-0.115,0.115c-0.053,0-0.123-0.018-0.212-0.044c-0.088-0.027-0.203-0.044-0.362-0.044
				c-0.513,0-0.901,0.318-1.149,0.936v2.209c0.071,0.018,0.238,0.044,0.503,0.097c0.088,0.018,0.133,0.079,0.133,0.168v0.371h-2.058
				v-0.371c0-0.088,0.044-0.15,0.132-0.168l0.504-0.097v-3.189c-0.283-0.053-0.451-0.088-0.504-0.106
				c-0.088-0.018-0.132-0.079-0.132-0.168v-0.371h0.636h0.451c0.088,0,0.133,0.009,0.168,0.044c0.035,0.035,0.053,0.088,0.071,0.168
				l0.053,0.698H80.071z"/>
			<path fill="#FFFFFF" d="M80.821,17.575h-2.215v-0.449c0-0.129,0.073-0.22,0.195-0.245l0.441-0.085v-3.06
				c-0.333-0.063-0.417-0.086-0.45-0.097c-0.113-0.022-0.186-0.114-0.186-0.242v-0.449h1.165c0.083,0,0.162,0.005,0.223,0.068
				c0.049,0.049,0.072,0.115,0.092,0.206l0.035,0.461c0.331-0.546,0.771-0.822,1.311-0.822c0.243,0,0.462,0.057,0.65,0.171
				l0.046,0.027l-0.106,0.644c-0.028,0.112-0.103,0.181-0.192,0.181c-0.062,0-0.139-0.019-0.234-0.047
				c-0.092-0.028-0.203-0.041-0.34-0.041c-0.475,0-0.835,0.294-1.07,0.874v2.13c0.032,0.006,0.072,0.014,0.119,0.022
				c0.084,0.016,0.191,0.035,0.322,0.061c0.123,0.024,0.196,0.116,0.196,0.245V17.575z M78.762,17.418h1.902v-0.293
				c0-0.068-0.035-0.084-0.07-0.091c-0.13-0.026-0.236-0.046-0.319-0.061c-0.088-0.016-0.151-0.028-0.188-0.037l-0.059-0.015
				l0.006-2.299c0.258-0.645,0.68-0.986,1.221-0.986c0.153,0,0.278,0.016,0.385,0.048c0.071,0.021,0.143,0.041,0.189,0.041
				c0.013,0,0.03-0.019,0.039-0.056l0.087-0.531c-0.153-0.081-0.329-0.122-0.523-0.122c-0.551,0-0.973,0.312-1.29,0.955
				l-0.022,0.044h-0.121l-0.014-0.072l-0.053-0.698c-0.015-0.063-0.029-0.099-0.048-0.118c-0.012-0.012-0.028-0.021-0.112-0.021
				h-1.008v0.293c0,0.068,0.035,0.084,0.069,0.091c0.058,0.019,0.224,0.053,0.503,0.106l0.064,0.012v3.319l-0.567,0.109
				c-0.034,0.007-0.069,0.023-0.069,0.091V17.418z"/>
		</g>
		<g>
			<path fill="#FFFFFF" d="M86.197,16.931c0.079,0.018,0.132,0.088,0.132,0.168v0.38h-0.574h-0.062H85.41
				c-0.071,0-0.133-0.018-0.186-0.035c-0.053-0.018-0.071-0.071-0.088-0.142l-0.088-0.424c-0.124,0.106-0.247,0.203-0.353,0.291
				c-0.106,0.089-0.23,0.159-0.354,0.212c-0.123,0.053-0.247,0.097-0.388,0.133c-0.142,0.035-0.3,0.044-0.477,0.044
				s-0.327-0.026-0.477-0.079c-0.15-0.053-0.292-0.115-0.398-0.212c-0.106-0.097-0.194-0.221-0.265-0.371
				c-0.071-0.15-0.097-0.327-0.097-0.53c0-0.177,0.044-0.353,0.141-0.513c0.097-0.159,0.265-0.318,0.477-0.442
				c0.212-0.124,0.495-0.238,0.848-0.318c0.353-0.079,0.778-0.115,1.29-0.115v-0.345c0-0.353-0.08-0.618-0.23-0.795
				c-0.15-0.177-0.371-0.274-0.663-0.274c-0.194,0-0.353,0.026-0.486,0.079c-0.132,0.053-0.238,0.097-0.336,0.159
				c-0.097,0.062-0.186,0.106-0.256,0.159c-0.071,0.053-0.132,0.071-0.203,0.071c-0.053,0-0.106-0.009-0.142-0.035
				c-0.035-0.027-0.071-0.071-0.088-0.106l-0.142-0.247c0.248-0.239,0.513-0.406,0.795-0.53c0.283-0.124,0.601-0.177,0.954-0.177
				c0.247,0,0.477,0.035,0.671,0.124c0.194,0.088,0.353,0.194,0.486,0.336c0.132,0.142,0.23,0.318,0.3,0.53
				c0.071,0.212,0.097,0.442,0.097,0.689v2.235c0.124,0.027,0.389,0.079,0.442,0.097V16.931z M84.977,15.482
				c-0.362,0-0.671,0.018-0.919,0.062c-0.247,0.044-0.459,0.115-0.618,0.186c-0.159,0.071-0.283,0.159-0.353,0.265
				c-0.071,0.106-0.106,0.212-0.106,0.336c0,0.124,0.027,0.212,0.062,0.3c0.035,0.088,0.088,0.159,0.159,0.212
				c0.071,0.053,0.141,0.088,0.23,0.115c0.088,0.026,0.186,0.044,0.292,0.044c0.142,0,0.256-0.018,0.371-0.044
				c0.115-0.027,0.221-0.062,0.327-0.115c0.106-0.053,0.203-0.124,0.291-0.194c0.089-0.071,0.177-0.159,0.265-0.247V15.482z"/>
			<path fill="#FFFFFF" d="M83.476,17.636c-0.182,0-0.342-0.027-0.503-0.084c-0.141-0.049-0.301-0.115-0.424-0.228
				c-0.113-0.104-0.208-0.237-0.283-0.395c-0.071-0.151-0.105-0.33-0.105-0.563c0-0.198,0.053-0.39,0.153-0.553
				c0.107-0.175,0.286-0.341,0.505-0.469c0.238-0.139,0.539-0.252,0.87-0.327c0.331-0.075,0.734-0.112,1.229-0.116v-0.267
				c0-0.329-0.071-0.579-0.211-0.744c-0.139-0.164-0.342-0.246-0.603-0.246c-0.183,0-0.333,0.024-0.457,0.074
				c-0.127,0.05-0.231,0.094-0.323,0.152c-0.04,0.025-0.078,0.048-0.115,0.069c-0.05,0.029-0.096,0.056-0.137,0.086
				c-0.079,0.06-0.156,0.086-0.25,0.086c-0.08,0-0.143-0.017-0.189-0.051c-0.043-0.032-0.087-0.085-0.111-0.134l-0.17-0.296
				l0.044-0.042c0.24-0.231,0.508-0.41,0.818-0.546c0.282-0.123,0.604-0.183,0.985-0.183c0.276,0,0.513,0.044,0.704,0.131
				c0.213,0.097,0.375,0.209,0.511,0.353c0.137,0.147,0.241,0.329,0.317,0.559c0.068,0.204,0.101,0.437,0.101,0.714v2.172
				l0.056,0.012c0.099,0.02,0.182,0.038,0.243,0.052l0.082,0.003c0.114,0.025,0.193,0.126,0.193,0.244v0.458H85.41
				c-0.081,0-0.151-0.02-0.21-0.039c-0.099-0.033-0.123-0.131-0.14-0.197l-0.062-0.299c-0.042,0.035-0.083,0.068-0.123,0.101
				c-0.045,0.037-0.089,0.072-0.13,0.107c-0.105,0.088-0.23,0.163-0.373,0.224c-0.137,0.059-0.264,0.103-0.4,0.137
				C83.841,17.623,83.693,17.636,83.476,17.636z M84.995,15.057c-0.519,0-0.936,0.037-1.273,0.113
				c-0.315,0.071-0.601,0.178-0.826,0.309c-0.197,0.115-0.356,0.262-0.45,0.415c-0.086,0.141-0.13,0.3-0.13,0.472
				c0,0.209,0.028,0.367,0.09,0.497c0.066,0.14,0.149,0.257,0.247,0.347c0.102,0.094,0.245,0.152,0.371,0.196
				c0.145,0.051,0.288,0.075,0.451,0.075c0.204,0,0.34-0.013,0.458-0.042c0.127-0.032,0.247-0.073,0.377-0.129
				c0.127-0.054,0.242-0.123,0.334-0.2c0.042-0.035,0.086-0.071,0.132-0.108c0.071-0.058,0.146-0.119,0.221-0.183l0.1-0.086
				l0.116,0.553c0.011,0.045,0.022,0.079,0.036,0.083c0.049,0.016,0.102,0.031,0.161,0.031h0.84v-0.302
				c0-0.027-0.01-0.05-0.028-0.068l-0.051-0.008c-0.035-0.012-0.204-0.047-0.315-0.07l-0.18-0.038v-2.298
				c0-0.259-0.031-0.477-0.093-0.664c-0.069-0.208-0.162-0.372-0.283-0.502c-0.121-0.129-0.267-0.23-0.461-0.318
				c-0.171-0.077-0.385-0.117-0.639-0.117c-0.359,0-0.661,0.056-0.923,0.171c-0.275,0.12-0.513,0.275-0.728,0.473l0.111,0.194
				c0.016,0.031,0.044,0.064,0.068,0.082c0.008,0.006,0.033,0.02,0.094,0.02c0.05,0,0.095-0.009,0.156-0.055
				c0.045-0.034,0.096-0.064,0.152-0.096c0.035-0.02,0.072-0.042,0.11-0.066c0.104-0.066,0.215-0.112,0.349-0.166
				c0.143-0.057,0.311-0.085,0.515-0.085c0.309,0,0.552,0.101,0.722,0.301c0.165,0.194,0.248,0.479,0.248,0.846v0.423H84.995z
				 M83.723,17.08c-0.104,0-0.207-0.016-0.314-0.047c-0.097-0.029-0.176-0.068-0.254-0.127c-0.082-0.061-0.144-0.144-0.185-0.246
				c-0.035-0.088-0.067-0.189-0.067-0.329c0-0.137,0.038-0.257,0.119-0.379c0.076-0.114,0.206-0.213,0.387-0.293
				c0.132-0.059,0.35-0.14,0.636-0.191c0.238-0.042,0.543-0.063,0.933-0.063h0.078v1.03l-0.023,0.023
				c-0.088,0.088-0.18,0.18-0.272,0.253c-0.078,0.063-0.184,0.142-0.305,0.203c-0.106,0.053-0.215,0.091-0.344,0.121
				C83.97,17.066,83.854,17.08,83.723,17.08z M84.899,15.56c-0.343,0.002-0.614,0.022-0.827,0.061
				c-0.271,0.048-0.476,0.124-0.6,0.18c-0.153,0.068-0.261,0.148-0.32,0.237c-0.064,0.096-0.093,0.186-0.093,0.292
				c0,0.108,0.022,0.187,0.056,0.271c0.03,0.075,0.074,0.134,0.134,0.178c0.063,0.047,0.126,0.079,0.205,0.103
				c0.092,0.027,0.18,0.041,0.269,0.041c0.119,0,0.225-0.013,0.354-0.042c0.116-0.027,0.215-0.061,0.31-0.108
				c0.084-0.042,0.17-0.1,0.277-0.186c0.078-0.062,0.158-0.141,0.236-0.219V15.56z"/>
		</g>
		<g>
			<path fill="#FFFFFF" d="M87.733,13.715c0.424-0.512,0.919-0.778,1.502-0.778c0.53,0,0.936,0.194,1.237,0.583
				c0.3,0.406,0.459,0.981,0.459,1.714c0,0.671-0.177,1.228-0.513,1.652c-0.353,0.442-0.813,0.671-1.36,0.671
				c-0.548,0-0.972-0.168-1.29-0.521v1.325c0.009,0,0.089,0.018,0.239,0.053c0.15,0.035,0.238,0.053,0.256,0.053
				c0.088,0.017,0.142,0.079,0.142,0.168v0.38h-2.067v-0.38c0-0.088,0.053-0.15,0.141-0.168l0.495-0.097v-4.7
				c-0.283-0.053-0.442-0.088-0.495-0.106c-0.088-0.018-0.141-0.079-0.141-0.168v-0.371h0.636h0.477
				c0.106,0,0.177,0.053,0.212,0.159l0.062,0.53H87.733z M88.793,16.949c0.424,0,0.76-0.142,0.989-0.442
				c0.23-0.3,0.336-0.725,0.336-1.272c0-1.095-0.389-1.661-1.149-1.661c-0.459,0-0.866,0.23-1.202,0.68v2.165
				C88.033,16.772,88.369,16.949,88.793,16.949z"/>
			<path fill="#FFFFFF" d="M88.483,19.094h-2.224v-0.458c0-0.126,0.078-0.22,0.204-0.245l0.432-0.085v-4.571
				c-0.175-0.033-0.372-0.073-0.441-0.097c-0.116-0.023-0.195-0.117-0.195-0.242v-0.449h1.191c0.139,0,0.241,0.075,0.286,0.213
				l0.045,0.38c0.419-0.452,0.907-0.681,1.453-0.681c0.555,0,0.98,0.201,1.299,0.613c0.316,0.428,0.476,1.02,0.476,1.762
				c0,0.685-0.178,1.257-0.529,1.701c-0.372,0.465-0.85,0.701-1.422,0.701c-0.5,0-0.899-0.135-1.212-0.412v1.073
				c0.037,0.008,0.092,0.021,0.178,0.041c0.163,0.038,0.229,0.05,0.241,0.051c0.139,0.026,0.217,0.12,0.217,0.246V19.094z
				 M86.415,18.938h1.911v-0.302c0-0.05-0.026-0.081-0.079-0.091c0.003,0.002-0.024,0.002-0.259-0.054
				c-0.134-0.031-0.21-0.049-0.228-0.051h-0.078l0.007-0.078v-1.529l0.136,0.152c0.3,0.333,0.703,0.495,1.232,0.495
				c0.521,0,0.959-0.216,1.299-0.642c0.329-0.415,0.495-0.954,0.495-1.603c0-0.708-0.149-1.269-0.444-1.668
				c-0.286-0.37-0.671-0.551-1.174-0.551c-0.553,0-1.024,0.245-1.442,0.749l-0.024,0.028h-0.106l-0.017-0.069l-0.062-0.53
				c-0.021-0.058-0.063-0.09-0.134-0.09h-1.035v0.293c0,0.051,0.026,0.081,0.078,0.091c0.035,0.011,0.133,0.038,0.494,0.106
				l0.064,0.012v4.829l-0.558,0.109c-0.052,0.01-0.078,0.041-0.078,0.091V18.938z M88.793,17.027c-0.448,0-0.804-0.184-1.088-0.561
				l-0.016-0.021v-2.216l0.016-0.021c0.352-0.472,0.777-0.712,1.264-0.712c0.56,0,1.227,0.302,1.227,1.739
				c0,0.579-0.115,1.01-0.352,1.32C89.605,16.868,89.251,17.027,88.793,17.027z M87.846,16.392c0.249,0.322,0.559,0.478,0.947,0.478
				c0.407,0,0.719-0.138,0.927-0.411c0.215-0.281,0.32-0.682,0.32-1.225c0-1.05-0.36-1.583-1.07-1.583
				c-0.428,0-0.806,0.211-1.124,0.628V16.392z"/>
		</g>
		<g>
			<path fill="#FFFFFF" d="M93.243,17.116v0.38h-2.058v-0.38c0-0.079,0.053-0.15,0.133-0.168c0.079-0.018,0.512-0.097,0.512-0.097
				v-3.189c0,0-0.433-0.079-0.512-0.097c-0.079-0.018-0.133-0.088-0.133-0.168v-0.371h1.422v3.826c0,0,0.424,0.079,0.504,0.097
				C93.19,16.966,93.243,17.037,93.243,17.116z M91.706,11.833c-0.035-0.071-0.044-0.141-0.044-0.212
				c0-0.071,0.009-0.15,0.044-0.221c0.035-0.071,0.071-0.133,0.123-0.186c0.053-0.053,0.106-0.088,0.177-0.124
				c0.071-0.035,0.142-0.044,0.212-0.044s0.142,0.009,0.212,0.044c0.071,0.035,0.124,0.071,0.177,0.124
				c0.053,0.053,0.088,0.115,0.124,0.186c0.035,0.071,0.053,0.15,0.053,0.221c0,0.071-0.018,0.142-0.053,0.212
				c-0.035,0.071-0.071,0.124-0.124,0.177c-0.053,0.053-0.106,0.088-0.177,0.124c-0.071,0.035-0.142,0.044-0.212,0.044
				s-0.141-0.009-0.212-0.044c-0.071-0.035-0.123-0.071-0.177-0.124C91.776,11.957,91.741,11.904,91.706,11.833z"/>
			<path fill="#FFFFFF" d="M93.321,17.575h-2.215v-0.458c0-0.118,0.08-0.219,0.194-0.244c0.061-0.013,0.327-0.063,0.451-0.086
				v-3.059c-0.124-0.023-0.39-0.072-0.451-0.086c-0.114-0.025-0.194-0.126-0.194-0.245v-0.449h1.579v3.839
				c0.122,0.023,0.382,0.072,0.443,0.086c0.114,0.025,0.193,0.126,0.193,0.244V17.575z M91.263,17.418h1.902v-0.302
				c0-0.045-0.029-0.082-0.071-0.091c-0.079-0.018-0.501-0.097-0.501-0.097l-0.064-0.012v-3.812h-1.266v0.293
				c0,0.045,0.029,0.082,0.072,0.092c0.079,0.018,0.509,0.097,0.509,0.097l0.064,0.012v3.319l-0.064,0.012
				c0,0-0.43,0.079-0.509,0.097c-0.042,0.009-0.072,0.047-0.072,0.091V17.418z M92.218,12.256c-0.066,0-0.154-0.006-0.247-0.052
				c-0.084-0.042-0.141-0.082-0.197-0.138c-0.056-0.056-0.097-0.115-0.138-0.197c-0.036-0.072-0.053-0.149-0.053-0.247
				c0-0.101,0.017-0.185,0.053-0.256c0.035-0.069,0.075-0.143,0.138-0.206c0.056-0.057,0.113-0.097,0.197-0.138
				c0.094-0.047,0.186-0.053,0.247-0.053c0.061,0,0.153,0.006,0.247,0.053c0.084,0.042,0.141,0.083,0.197,0.139
				c0.059,0.059,0.098,0.125,0.138,0.206c0.039,0.079,0.061,0.17,0.061,0.256c0,0.083-0.02,0.166-0.061,0.247
				c-0.042,0.083-0.083,0.142-0.138,0.197c-0.056,0.056-0.113,0.096-0.197,0.138C92.373,12.25,92.285,12.256,92.218,12.256z
				 M92.218,11.125c-0.073,0-0.127,0.011-0.177,0.036c-0.068,0.034-0.112,0.065-0.156,0.109s-0.075,0.098-0.109,0.165
				c-0.024,0.049-0.036,0.109-0.036,0.186c0,0.073,0.011,0.127,0.036,0.177c0.033,0.067,0.065,0.113,0.109,0.156
				c0.044,0.044,0.088,0.075,0.156,0.109c0.05,0.025,0.103,0.036,0.177,0.036c0.073,0,0.128-0.011,0.177-0.036
				c0.069-0.035,0.113-0.065,0.156-0.109c0.044-0.044,0.075-0.089,0.109-0.157c0.03-0.06,0.045-0.118,0.045-0.177
				c0-0.061-0.016-0.129-0.045-0.186c-0.034-0.067-0.065-0.121-0.109-0.165c-0.044-0.044-0.088-0.075-0.156-0.109
				C92.345,11.136,92.291,11.125,92.218,11.125z"/>
		</g>
		<g>
			<path fill="#FFFFFF" d="M97.515,16.931c0.079,0.018,0.132,0.088,0.132,0.168v0.38h-0.574h-0.062h-0.283
				c-0.071,0-0.133-0.018-0.186-0.035c-0.053-0.018-0.071-0.071-0.088-0.142l-0.088-0.424c-0.124,0.106-0.247,0.203-0.353,0.291
				c-0.106,0.089-0.23,0.159-0.354,0.212c-0.123,0.053-0.247,0.097-0.388,0.133c-0.142,0.035-0.3,0.044-0.477,0.044
				s-0.327-0.026-0.477-0.079c-0.15-0.053-0.292-0.115-0.398-0.212c-0.106-0.097-0.194-0.221-0.265-0.371
				c-0.071-0.15-0.097-0.327-0.097-0.53c0-0.177,0.044-0.353,0.141-0.513c0.097-0.159,0.265-0.318,0.477-0.442
				c0.212-0.124,0.495-0.238,0.848-0.318c0.353-0.079,0.778-0.115,1.29-0.115v-0.345c0-0.353-0.08-0.618-0.23-0.795
				c-0.15-0.177-0.371-0.274-0.663-0.274c-0.194,0-0.353,0.026-0.486,0.079c-0.132,0.053-0.238,0.097-0.336,0.159
				c-0.097,0.062-0.186,0.106-0.256,0.159c-0.071,0.053-0.132,0.071-0.203,0.071c-0.053,0-0.106-0.009-0.142-0.035
				c-0.035-0.027-0.071-0.071-0.088-0.106l-0.142-0.247c0.248-0.239,0.513-0.406,0.795-0.53c0.283-0.124,0.601-0.177,0.954-0.177
				c0.247,0,0.477,0.035,0.671,0.124c0.194,0.088,0.353,0.194,0.486,0.336c0.132,0.142,0.23,0.318,0.3,0.53
				c0.071,0.212,0.097,0.442,0.097,0.689v2.235c0.124,0.027,0.389,0.079,0.442,0.097V16.931z M96.296,15.482
				c-0.362,0-0.671,0.018-0.919,0.062c-0.247,0.044-0.459,0.115-0.618,0.186c-0.159,0.071-0.283,0.159-0.353,0.265
				c-0.071,0.106-0.106,0.212-0.106,0.336c0,0.124,0.027,0.212,0.062,0.3c0.035,0.088,0.088,0.159,0.159,0.212
				c0.071,0.053,0.141,0.088,0.23,0.115c0.088,0.026,0.186,0.044,0.292,0.044c0.142,0,0.256-0.018,0.371-0.044
				c0.115-0.027,0.221-0.062,0.327-0.115c0.106-0.053,0.203-0.124,0.291-0.194c0.089-0.071,0.177-0.159,0.265-0.247V15.482z"/>
			<path fill="#FFFFFF" d="M94.794,17.636c-0.182,0-0.342-0.027-0.503-0.084c-0.141-0.049-0.301-0.115-0.424-0.228
				c-0.113-0.104-0.208-0.237-0.283-0.395c-0.071-0.151-0.105-0.33-0.105-0.563c0-0.198,0.053-0.39,0.153-0.553
				c0.107-0.175,0.286-0.341,0.505-0.469c0.238-0.139,0.539-0.252,0.87-0.327c0.331-0.075,0.734-0.112,1.229-0.116v-0.267
				c0-0.329-0.071-0.579-0.211-0.744c-0.139-0.164-0.342-0.246-0.603-0.246c-0.183,0-0.333,0.024-0.457,0.074
				c-0.127,0.05-0.231,0.094-0.323,0.152c-0.04,0.025-0.078,0.048-0.115,0.069c-0.05,0.029-0.096,0.056-0.137,0.086
				c-0.079,0.06-0.156,0.086-0.25,0.086c-0.08,0-0.143-0.017-0.189-0.051c-0.043-0.032-0.087-0.085-0.111-0.134l-0.17-0.296
				l0.044-0.042c0.24-0.231,0.508-0.41,0.818-0.546c0.282-0.123,0.604-0.183,0.985-0.183c0.276,0,0.513,0.044,0.704,0.131
				c0.213,0.097,0.375,0.209,0.511,0.353c0.137,0.147,0.241,0.329,0.317,0.559c0.068,0.204,0.101,0.437,0.101,0.714v2.172
				l0.056,0.012c0.099,0.02,0.182,0.038,0.243,0.052l0.082,0.003c0.114,0.025,0.193,0.126,0.193,0.244v0.458h-0.997
				c-0.081,0-0.151-0.02-0.21-0.039c-0.099-0.033-0.123-0.131-0.14-0.197l-0.062-0.299c-0.042,0.035-0.083,0.068-0.123,0.101
				c-0.045,0.037-0.089,0.072-0.13,0.107c-0.105,0.088-0.23,0.163-0.373,0.224c-0.137,0.059-0.264,0.103-0.4,0.137
				C95.159,17.623,95.011,17.636,94.794,17.636z M96.313,15.057c-0.519,0-0.936,0.037-1.273,0.113
				c-0.315,0.071-0.601,0.178-0.826,0.309c-0.197,0.115-0.356,0.262-0.45,0.415c-0.086,0.141-0.13,0.3-0.13,0.472
				c0,0.209,0.028,0.367,0.09,0.497c0.066,0.14,0.149,0.257,0.247,0.347c0.102,0.094,0.245,0.152,0.371,0.196
				c0.145,0.051,0.288,0.075,0.451,0.075c0.204,0,0.34-0.013,0.458-0.042c0.127-0.032,0.247-0.073,0.377-0.129
				c0.127-0.054,0.242-0.123,0.334-0.2c0.042-0.035,0.086-0.071,0.132-0.108c0.071-0.058,0.146-0.119,0.221-0.183l0.1-0.086
				l0.116,0.553c0.011,0.045,0.022,0.079,0.036,0.083c0.049,0.016,0.102,0.031,0.161,0.031h0.84v-0.302
				c0-0.027-0.01-0.05-0.028-0.068l-0.051-0.008c-0.035-0.012-0.204-0.047-0.315-0.07l-0.18-0.038v-2.298
				c0-0.259-0.031-0.477-0.093-0.664c-0.069-0.208-0.162-0.372-0.283-0.502c-0.121-0.129-0.267-0.23-0.461-0.318
				c-0.171-0.077-0.385-0.117-0.639-0.117c-0.359,0-0.661,0.056-0.923,0.171c-0.275,0.12-0.513,0.275-0.728,0.473l0.111,0.194
				c0.016,0.031,0.044,0.064,0.068,0.082c0.008,0.006,0.033,0.02,0.094,0.02c0.05,0,0.095-0.009,0.156-0.055
				c0.045-0.034,0.096-0.064,0.152-0.096c0.035-0.02,0.072-0.042,0.11-0.066c0.104-0.066,0.215-0.112,0.349-0.166
				c0.143-0.057,0.311-0.085,0.515-0.085c0.309,0,0.552,0.101,0.722,0.301c0.165,0.194,0.248,0.479,0.248,0.846v0.423H96.313z
				 M95.041,17.08c-0.104,0-0.207-0.016-0.314-0.047c-0.097-0.029-0.176-0.068-0.254-0.127c-0.082-0.061-0.144-0.144-0.185-0.246
				c-0.035-0.088-0.067-0.189-0.067-0.329c0-0.137,0.038-0.257,0.119-0.379c0.076-0.114,0.206-0.213,0.387-0.293
				c0.132-0.059,0.35-0.14,0.636-0.191c0.238-0.042,0.543-0.063,0.933-0.063h0.078v1.03l-0.023,0.023
				c-0.088,0.088-0.18,0.18-0.272,0.253c-0.078,0.063-0.184,0.142-0.305,0.203c-0.106,0.053-0.215,0.091-0.344,0.121
				C95.289,17.066,95.173,17.08,95.041,17.08z M96.217,15.56c-0.343,0.002-0.614,0.022-0.827,0.061
				c-0.271,0.048-0.476,0.124-0.6,0.18c-0.153,0.068-0.261,0.148-0.32,0.237c-0.064,0.096-0.093,0.186-0.093,0.292
				c0,0.108,0.022,0.187,0.056,0.271c0.03,0.075,0.074,0.134,0.134,0.178c0.063,0.047,0.126,0.079,0.205,0.103
				c0.092,0.027,0.18,0.041,0.269,0.041c0.119,0,0.225-0.013,0.354-0.042c0.116-0.027,0.215-0.061,0.31-0.108
				c0.084-0.042,0.17-0.1,0.277-0.186c0.078-0.062,0.158-0.141,0.236-0.219V15.56z"/>
		</g>
	</g>
	<path fill="#FFFFFF" d="M22.936,0.598c-12.301,0-22.309,10.008-22.309,22.309c0,9.933,6.676,18.753,16.238,21.463
		c0.772,0.197,0.831-0.325,0.645-0.46c-1.514-1.102-3.387-5.426-3.669-6.312l-2.98-9.426l0.34-0.109
		c0.205-0.065,0.419-0.097,0.638-0.097c0.698,0,1.561,0.369,1.891,1.406l1.807,5.714c0.014,0.036,0.029,0.066,0.048,0.099
		c0.019,0.036,0.051,0.09,0.104,0.15c0.027,0.029,0.055,0.055,0.101,0.094c0.036,0.027,0.072,0.051,0.094,0.062
		c0.051,0.031,0.101,0.053,0.152,0.07c0.048,0.016,0.157,0.032,0.258,0.032c0.157,0,0.221-0.038,0.301-0.114
		c0.295-0.277,0.239-0.53,0.239-1.283V18.392c0-0.488,0.331-0.797,0.537-0.987c0.241-0.222,0.645-0.361,1.007-0.361
		c0.577,0,1.417,0.414,1.417,1.336v12.697c0,0.436,0.399,0.804,0.846,0.804s0.846-0.368,0.846-0.804V15.681
		c0-0.526,0.187-0.827,0.36-0.987c0.285-0.263,0.577-0.361,0.914-0.362c0.58,0,1.264,0.42,1.264,1.343v15.286
		c0,0.436,0.399,0.804,0.846,0.804s0.846-0.368,0.846-0.804V17.102c0-0.485,0.186-0.796,0.396-0.988
		c0.241-0.222,0.506-0.36,0.866-0.361c0.672,0,1.276,0.471,1.276,1.342v14c0,0.435,0.399,0.803,0.846,0.803s0.846-0.368,0.846-0.803
		v-9.375c0-0.517,0.253-0.819,0.429-0.981c0.231-0.212,0.674-0.361,1.046-0.362c0.596,0,1.446,0.416,1.446,1.341l-0.037,12.957
		c0.023,2.762-2.224,7.667-4.087,9.406c0,0-0.029,0.387,1.169,0c8.922-2.884,15.331-11.466,15.331-21.174
		C45.245,10.606,35.237,0.598,22.936,0.598z M32.091,41.367c1.383-1.891,2.201-4.221,2.201-6.739l-0.005-12.91
		c-0.005-1.845-1.539-2.948-2.98-2.948c-0.462,0.001-0.938,0.114-1.361,0.311v-1.987c0-1.845-1.473-2.948-2.938-2.948
		c-0.547,0-1.068,0.152-1.534,0.43c-0.485-1.269-1.73-1.851-2.752-1.851c-0.739,0.001-1.469,0.288-2.01,0.786
		c-0.596,0.549-0.919,1.32-0.919,2.171v0.068c-0.423-0.2-0.878-0.314-1.358-0.314c-0.778,0.001-1.667,0.302-2.193,0.786
		c-0.651,0.599-1.102,1.391-1.102,2.171v10.973l-0.052-0.481c-0.495-1.557-1.758-2.525-3.357-2.525
		c-0.369,0-0.704,0.055-1.063,0.169c-0.744,0.237-0.8,0.262-0.819,0.269c-0.018,0.006-0.063,0.023-0.256,0.083
		c-0.202,0.064-0.366,0.205-0.466,0.397c-0.097,0.189-0.113,0.406-0.049,0.611l3.236,10.24c0.405,1.252,1.019,2.395,1.787,3.405
		C6.951,38.163,2.319,31,2.319,22.907c0-11.368,9.249-20.617,20.617-20.617s20.617,9.249,20.617,20.617
		C43.553,30.826,39.047,37.924,32.091,41.367z"/>
	<path fill="#FFFFFF" d="M30.119,7.167c-0.152-0.203-0.385-0.319-0.641-0.319c-0.319,0-0.721,0.193-0.89,0.735
		c-0.282,0.9-0.76,1.319-1.507,1.319c-0.822,0-1.779-0.336-2.427-0.729C23.727,7.61,22.664,7.5,21.583,7.5h-0.105
		c-1.941,0-3.959,1.624-4.235,3.525c-0.044,0.302,0.038,0.509,0.225,0.729c0.168,0.198,0.401,0.265,0.638,0.265
		c0.36,0,0.658-0.28,0.799-0.708c0.501-1.521,1.508-2.339,2.913-2.344c0.929,0,2.053,0.564,3.057,1.072
		c0.367,0.186,0.714,0.358,1.031,0.494c0.379,0.163,0.769,0.244,1.157,0.244c1.609,0,2.819-1.368,3.182-2.719
		C30.338,7.716,30.293,7.399,30.119,7.167z"/>
</g>
</svg>
